<svg width="34" height="34" viewBox="0 0 34 34" fill="none" 
        xmlns="http://www.w3.org/2000/svg">
<path fill-rule="evenodd" clip-rule="evenodd"
 d="M17 33.7999C21.4556 33.7999 25.7287 32.03 28.8793
  28.8793C32.03 25.7287 33.7999 21.4556 33.7999 17C33.7999
   12.5443 32.03 8.27117 28.8793 5.12056C25.7287 1.96995 
   21.4556 0.199951 17 0.199951C12.5443 0.199951 8.27117
    1.96995 5.12056 5.12056C1.96995 8.27117 0.199951 
    12.5443 0.199951 17C0.199951 21.4556 1.96995 25.7287
     5.12056 28.8793C8.27117 32.03 12.5443 33.7999 1
     7 33.7999ZM24.7846 14.2846C25.1672 13.8886 25.3788 13.3581 25.3741 12.8075C25.3693 12.2569 25.1484 11.7302 24.7591 11.3408C24.3697 10.9515 23.843 10.7306 23.2924 10.7258C22.7418 10.7211 22.2113 10.9327 21.8153 11.3153L14.9 18.2306L12.1847 15.5153C11.7886 15.1327 11.2581 14.9211 10.7075 14.9258C10.1569 14.9306 9.63019 15.1515 9.24083 15.5408C8.85147 15.9302 8.63062 16.4569 8.62583 17.0075C8.62105 17.5581 8.83272 18.0886 9.21525 18.4846L13.4153 22.6847C13.8091 23.0783 14.3431 23.2995 14.9 23.2995C15.4568 23.2995 15.9908 23.0783 16.3846 22.6847L24.7846 14.2846Z"
  fill="#F8F8F8"/>
</svg>
